<svg width="29" height="29" viewBox="0 0 29 29" fill="none" xmlns="http://www.w3.org/2000/svg">
<circle cx="14.5" cy="14.8223" r="14.1777" fill="white"/>
<path d="M4.33464 18.582C3.28328 15.7784 3.68797 13.1583 4.02174 12.1987C5.37765 12.0736 8.59012 12.5242 10.5927 15.3278C12.5953 18.1314 15.474 19.0826 16.6631 19.2078C17.2471 19.2912 18.8284 19.2954 20.4805 18.6446C22.1326 17.9937 23.1715 17.9979 23.4844 18.0813L23.4218 18.2065C22.2202 20.91 19.6669 22.9209 18.5405 23.5885C13.8845 25.4909 10.5927 24.548 9.52883 23.8388C8.2355 23.2547 5.386 21.3856 4.33464 18.582Z" fill="#273080"/>
<path d="M11.4689 9.32007C8.36493 8.21864 6.04527 8.86114 5.27344 9.32007C5.27344 9.38265 5.59886 9.54535 6.90054 9.69555C8.20222 9.84574 9.8627 11.1349 10.5302 11.7607C11.0935 12.1362 12.4828 13.3753 13.5341 15.3278C14.5855 17.2804 16.7675 17.6433 17.727 17.5807C18.624 17.4139 20.5932 16.9549 21.2942 16.4543C21.9951 15.9536 23.255 15.9119 23.7974 15.9536C23.5971 15.453 22.6709 14.9941 22.2329 14.8272C21.7322 14.6603 20.2428 14.5268 18.2903 15.3278C16.3377 16.1289 15.3072 15.3278 15.0361 14.8272C14.8275 14.4517 14.3226 13.3503 13.9722 11.9485C13.6217 10.5466 12.1573 9.61211 11.4689 9.32007Z" fill="#273080"/>
<path d="M14.672 6.49812C12.1115 5.19841 10.0182 5.41232 9.29159 5.68174C9.28391 5.73234 9.54656 5.9068 10.6586 6.19978C11.7706 6.49276 13.0544 7.75407 13.5573 8.34811C14.0004 8.72597 15.0549 9.91107 15.7283 11.6286C16.4018 13.346 18.2522 13.9271 19.0932 14.0029C19.8926 13.9862 21.6591 13.8745 22.3292 13.562C22.9993 13.2495 24.0987 13.3818 24.5646 13.487C24.4521 13.0558 23.704 12.5626 23.3441 12.3699C22.9298 12.169 21.6527 11.8648 19.8588 12.2553C18.0648 12.6458 17.2682 11.8622 17.0941 11.4216C16.959 11.0905 16.6558 10.1333 16.5234 8.95347C16.3911 7.77369 15.234 6.82499 14.672 6.49812Z" fill="#273080"/>
<path d="M19.598 5.46609C18.3226 4.81867 17.2798 4.92523 16.9179 5.05943C16.9141 5.08464 17.0449 5.17154 17.5988 5.31748C18.1527 5.46342 18.7923 6.09172 19.0428 6.38762C19.2635 6.57584 19.7887 7.16617 20.1242 8.0217C20.4597 8.87723 21.3814 9.16666 21.8003 9.20443C22.1986 9.19609 23.0785 9.14048 23.4123 8.98481C23.7461 8.82914 24.2937 8.89504 24.5258 8.94745C24.4697 8.73263 24.0971 8.48697 23.9178 8.39099C23.7115 8.29091 23.0753 8.13937 22.1817 8.33388C21.2881 8.5284 20.8913 8.13808 20.8045 7.91861C20.7373 7.75367 20.5862 7.27685 20.5203 6.68917C20.4543 6.10149 19.878 5.62891 19.598 5.46609Z" fill="#273080"/>
</svg>
